<svg width="293" height="63" viewBox="0 0 293 63" fill="none" xmlns="http://www.w3.org/2000/svg">
<path fill-rule="evenodd" clip-rule="evenodd" d="M61.856 6.86271L56.2562 6.86805C55.0364 6.12967 53.6156 5.70409 52.1085 5.70409C50.5747 5.70409 49.135 6.13264 47.9034 6.87636L7.14185 6.91613C7.16786 16.6665 7.24236 44.3399 7.26897 54.2903C7.26897 54.2903 10.4529 53.6261 12.0588 53.3762C30.4038 50.5171 42.0617 32.5453 41.9388 22.9659L41.9494 22.8977H14.6426C11.9411 22.8977 9.44185 23.0158 7.97375 23.1333V14.8211C9.67658 15.0574 12.7044 15.293 14.6426 15.293H41.8317C42.6536 15.293 43.9461 15.2342 45.1789 15.0574L45.1582 14.9298C45.1073 14.6175 45.0618 14.3 45.0618 13.9367C45.0618 10.157 48.0548 7.04493 51.7785 6.87043L51.9725 6.8639L52.1085 6.86271L52.3 6.86568L52.4638 6.87221C56.1202 7.06215 59.0966 10.1676 59.0966 13.9367C59.0966 17.7064 55.8169 20.9526 52.0623 20.9526C51.6502 20.9526 51.3771 20.9015 51.3451 20.8932L51.302 21.0553L51.2511 21.2517C51.2434 21.2844 51.2352 21.3164 51.2269 21.3485C51.1636 21.6037 51.1051 21.8494 51.0436 22.0845C50.991 22.2839 50.9366 22.4768 50.8751 22.662L50.7799 23.0668C49.4064 28.86 47.0248 37.8363 42.0665 44.1203C41.1932 45.2279 39.3798 47.6377 36.5435 50.1841C34.4368 52.0752 31.9441 53.9229 29.4265 55.4679C24.4593 58.5165 14.3824 61.5852 14.3824 61.5852L0 61.5193V0L65.4497 0.167382H69.2249V3.46281L69.0788 57.9098V61.5193H49.3745C46.0711 59.5451 42.8115 57.3513 39.5974 54.929H61.856V6.86271ZM38.4692 53.9205C37.648 53.3305 36.8545 52.7299 36.087 52.1197C38.228 50.3141 40.1431 48.3625 41.8329 46.2957C45.9097 49.2611 50.7799 51.9007 56.5784 53.9205H38.4692ZM24.3931 24.0563H16.5754C18.3835 29.6482 21.9051 37.3454 28.3267 44.7056C30.4807 42.9973 32.2976 41.1264 33.8952 39.1505C29.1811 33.9212 26.2 28.4735 24.3931 24.0563ZM60.1981 14.8573C59.7375 18.8615 56.3129 22.0495 52.2267 22.1094C52.151 22.4133 52.0759 22.7024 51.9873 22.976C51.9671 23.0615 51.947 23.1476 51.9269 23.2342L60.8012 23.4722V14.8544L60.1981 14.8573ZM52.083 10.4977C53.9496 10.4977 55.465 12.0183 55.465 13.8922C55.465 15.7655 53.9496 17.2868 52.083 17.2868C50.217 17.2868 48.7016 15.7655 48.7016 13.8922C48.7016 12.0183 50.217 10.4977 52.083 10.4977ZM37.9288 7.83614H30.7137L30.8201 14.5416H37.8165L37.9288 7.83614Z" fill="#9D4745"/>
<path d="M82.0839 39H92.302C98.611 39 103.41 36.3294 103.41 30.5623C103.41 26.6918 101.127 24.5243 98.0304 23.7889V23.5954C100.469 22.7439 101.94 20.0345 101.94 17.4026C101.94 12.0613 97.4498 10.3196 91.5666 10.3196H82.0839V39ZM87.8123 22.0085V14.7319H91.2183C94.663 14.7319 96.3661 15.7383 96.3661 18.2541C96.3661 20.5377 94.7792 22.0085 91.1409 22.0085H87.8123ZM87.8123 34.5876V26.2273H91.7989C95.7468 26.2273 97.8369 27.4272 97.8369 30.214C97.8369 33.1942 95.7081 34.5876 91.7989 34.5876H87.8123ZM114.428 39.5419C117.37 39.5419 119.46 38.1098 121.318 35.9036H121.473L121.898 39H126.543V17.3252H120.853V31.9557C119.383 33.8909 118.221 34.665 116.441 34.665C114.351 34.665 113.422 33.4652 113.422 30.1365V17.3252H107.732V30.8719C107.732 36.2906 109.745 39.5419 114.428 39.5419ZM132.609 39H138.298V24.0986C139.885 22.5117 141.008 21.6601 142.788 21.6601C144.917 21.6601 145.846 22.8213 145.846 26.1886V39H151.536V25.4919C151.536 20.0345 149.523 16.7833 144.84 16.7833C141.898 16.7833 139.692 18.3315 137.795 20.1894H137.679L137.253 17.3252H132.609V39ZM157.404 47.3216H163.094V40.7417L162.9 37.1809C164.565 38.6904 166.384 39.5419 168.28 39.5419C173.041 39.5419 177.492 35.2456 177.492 27.8142C177.492 21.157 174.318 16.7833 168.977 16.7833C166.655 16.7833 164.41 18.0219 162.591 19.5701H162.475L162.049 17.3252H157.404V47.3216ZM167.003 34.8586C165.842 34.8586 164.449 34.4328 163.094 33.233V23.7115C164.565 22.202 165.881 21.4666 167.351 21.4666C170.332 21.4666 171.648 23.7502 171.648 27.8917C171.648 32.6137 169.635 34.8586 167.003 34.8586ZM182.313 39H188.003V26.0725C189.202 22.9374 191.254 21.815 192.957 21.815C193.847 21.815 194.466 21.9311 195.24 22.1633L196.208 17.2478C195.55 16.9768 194.853 16.7833 193.654 16.7833C191.409 16.7833 189.086 18.3315 187.499 21.157H187.383L186.958 17.3252H182.313V39ZM207.774 39.5419C213.193 39.5419 218.186 35.3617 218.186 28.1626C218.186 20.9635 213.193 16.7833 207.774 16.7833C202.356 16.7833 197.363 20.9635 197.363 28.1626C197.363 35.3617 202.356 39.5419 207.774 39.5419ZM207.774 34.8973C204.833 34.8973 203.168 32.2653 203.168 28.1626C203.168 24.0986 204.833 21.4279 207.774 21.4279C210.716 21.4279 212.38 24.0986 212.38 28.1626C212.38 32.2653 210.716 34.8973 207.774 34.8973Z" fill="#9D4745"/>
<path d="M82.833 59.1935C85.1968 59.1935 86.5929 57.7697 86.5929 56.0971C86.5929 54.618 85.7773 53.8301 84.5332 53.3187L83.1924 52.7519C82.3215 52.4063 81.6027 52.1437 81.6027 51.4111C81.6027 50.7337 82.1695 50.3328 83.068 50.3328C83.9112 50.3328 84.5885 50.6369 85.2382 51.1761L86.275 49.8905C85.4456 49.0473 84.2568 48.5773 83.068 48.5773C80.9945 48.5773 79.5292 49.8628 79.5292 51.5355C79.5292 53.0284 80.566 53.8578 81.6027 54.2863L82.9712 54.8669C83.8835 55.2539 84.5056 55.4889 84.5056 56.2492C84.5056 56.968 83.9388 57.4242 82.8744 57.4242C81.9759 57.4242 81.0083 56.968 80.2757 56.2906L79.1007 57.7006C80.096 58.6544 81.4645 59.1935 82.833 59.1935ZM88.2382 59H90.2702V51.259H88.2382V59ZM89.2611 50.0149C89.9523 50.0149 90.4361 49.5726 90.4361 48.8952C90.4361 48.2317 89.9523 47.7894 89.2611 47.7894C88.5561 47.7894 88.0723 48.2317 88.0723 48.8952C88.0723 49.5726 88.5561 50.0149 89.2611 50.0149ZM92.4364 59H94.4685V53.6781C95.0076 53.0975 95.5052 52.8072 95.9475 52.8072C96.6802 52.8072 97.0396 53.2219 97.0396 54.4245V59H99.0578V53.6781C99.6107 53.0975 100.108 52.8072 100.551 52.8072C101.283 52.8072 101.629 53.2219 101.629 54.4245V59H103.661V54.1757C103.661 52.2266 102.901 51.0655 101.256 51.0655C100.247 51.0655 99.5001 51.6737 98.7951 52.4201C98.4219 51.5631 97.7722 51.0655 96.6664 51.0655C95.6573 51.0655 94.9385 51.6184 94.2888 52.2957H94.2473L94.0952 51.259H92.4364V59ZM105.76 61.972H107.792V59.622L107.723 58.3503C108.317 58.8894 108.967 59.1935 109.645 59.1935C111.345 59.1935 112.934 57.6591 112.934 55.0051C112.934 52.6275 111.801 51.0655 109.893 51.0655C109.064 51.0655 108.262 51.5078 107.613 52.0607H107.571L107.419 51.259H105.76V61.972ZM109.188 57.5209C108.774 57.5209 108.276 57.3689 107.792 56.9403V53.5398C108.317 53.0007 108.787 52.7381 109.313 52.7381C110.377 52.7381 110.847 53.5536 110.847 55.0327C110.847 56.7192 110.128 57.5209 109.188 57.5209ZM116.564 59.1935C117.048 59.1935 117.379 59.1106 117.614 59.0138L117.366 57.5071C117.227 57.5347 117.172 57.5347 117.089 57.5347C116.896 57.5347 116.688 57.3827 116.688 56.9127V47.9691H114.656V56.8298C114.656 58.2674 115.154 59.1935 116.564 59.1935ZM119.016 59H121.048V51.259H119.016V59ZM120.039 50.0149C120.731 50.0149 121.214 49.5726 121.214 48.8952C121.214 48.2317 120.731 47.7894 120.039 47.7894C119.334 47.7894 118.851 48.2317 118.851 48.8952C118.851 49.5726 119.334 50.0149 120.039 50.0149ZM123.56 59H125.592V52.8625H127.044V51.259H125.592V50.5955C125.592 49.7384 125.924 49.379 126.532 49.379C126.781 49.379 127.085 49.4343 127.348 49.5449L127.721 48.0382C127.376 47.9138 126.85 47.7755 126.256 47.7755C124.307 47.7755 123.56 49.0196 123.56 50.6369V51.2728L122.524 51.3558V52.8625H123.56V59ZM129.035 62.1102C130.763 62.1102 131.593 61.0597 132.27 59.235L135.021 51.259H133.072L132.007 54.853C131.828 55.5718 131.634 56.3183 131.454 57.0371H131.385C131.164 56.2906 130.971 55.5442 130.736 54.853L129.505 51.259H127.459L130.473 58.8618L130.335 59.3179C130.113 59.9953 129.671 60.4929 128.883 60.4929C128.704 60.4929 128.482 60.4376 128.344 60.3961L127.971 61.9582C128.275 62.0549 128.579 62.1102 129.035 62.1102ZM136.295 59H138.327V51.259H136.295V59ZM137.318 50.0149C138.01 50.0149 138.493 49.5726 138.493 48.8952C138.493 48.2317 138.01 47.7894 137.318 47.7894C136.613 47.7894 136.13 48.2317 136.13 48.8952C136.13 49.5726 136.613 50.0149 137.318 50.0149ZM140.494 59H142.526V53.6781C143.093 53.1113 143.493 52.8072 144.129 52.8072C144.89 52.8072 145.221 53.2219 145.221 54.4245V59H147.253V54.1757C147.253 52.2266 146.534 51.0655 144.862 51.0655C143.811 51.0655 143.023 51.6184 142.346 52.2819H142.305L142.153 51.259H140.494V59ZM152.072 62.359C154.657 62.359 156.289 61.1702 156.289 59.6082C156.289 58.2535 155.266 57.673 153.399 57.673H152.086C151.174 57.673 150.87 57.4518 150.87 57.0371C150.87 56.7192 150.994 56.5533 151.202 56.3736C151.533 56.4842 151.893 56.5533 152.197 56.5533C153.856 56.5533 155.183 55.6686 155.183 53.9269C155.183 53.4431 155.031 53.0145 154.837 52.7519H156.15V51.259H153.358C153.04 51.1484 152.625 51.0655 152.197 51.0655C150.552 51.0655 149.073 52.0469 149.073 53.8578C149.073 54.7701 149.57 55.5027 150.11 55.8898V55.9451C149.64 56.2768 149.239 56.8159 149.239 57.3965C149.239 58.0324 149.543 58.4332 149.944 58.6959V58.765C149.239 59.1659 148.838 59.7188 148.838 60.3685C148.838 61.737 150.248 62.359 152.072 62.359ZM152.197 55.2954C151.519 55.2954 150.98 54.7839 150.98 53.8578C150.98 52.9593 151.506 52.4478 152.197 52.4478C152.888 52.4478 153.413 52.9593 153.413 53.8578C153.413 54.7839 152.874 55.2954 152.197 55.2954ZM152.377 61.0735C151.257 61.0735 150.538 60.7003 150.538 60.0506C150.538 59.7326 150.69 59.4285 151.036 59.1521C151.312 59.2212 151.644 59.2626 152.114 59.2626H153.054C153.883 59.2626 154.339 59.4009 154.339 59.9538C154.339 60.562 153.538 61.0735 152.377 61.0735ZM163.121 59.1935C165.318 59.1935 166.286 57.6177 166.286 55.6962V48.757H164.24V55.5304C164.24 56.9403 163.77 57.4242 162.872 57.4242C162.291 57.4242 161.752 57.1062 161.351 56.3598L159.955 57.3965C160.632 58.5853 161.628 59.1935 163.121 59.1935ZM170.493 59.1935C171.378 59.1935 172.152 58.7512 172.829 58.1706H172.885L173.023 59H174.682V54.4798C174.682 52.2404 173.673 51.0655 171.71 51.0655C170.493 51.0655 169.387 51.5216 168.475 52.0884L169.208 53.4292C169.927 53.0145 170.618 52.6966 171.336 52.6966C172.29 52.6966 172.622 53.2772 172.664 54.0375C169.539 54.3692 168.199 55.2401 168.199 56.8989C168.199 58.2121 169.111 59.1935 170.493 59.1935ZM171.157 57.6039C170.562 57.6039 170.134 57.3412 170.134 56.733C170.134 56.0418 170.77 55.5165 172.664 55.2816V56.8436C172.166 57.3274 171.737 57.6039 171.157 57.6039ZM176.753 61.972H178.785V59.622L178.716 58.3503C179.31 58.8894 179.96 59.1935 180.637 59.1935C182.337 59.1935 183.927 57.6591 183.927 55.0051C183.927 52.6275 182.793 51.0655 180.886 51.0655C180.056 51.0655 179.255 51.5078 178.605 52.0607H178.564L178.411 51.259H176.753V61.972ZM180.181 57.5209C179.766 57.5209 179.269 57.3689 178.785 56.9403V53.5398C179.31 53.0007 179.78 52.7381 180.305 52.7381C181.37 52.7381 181.84 53.5536 181.84 55.0327C181.84 56.7192 181.121 57.5209 180.181 57.5209ZM187.367 59.1935C188.252 59.1935 189.026 58.7512 189.703 58.1706H189.759L189.897 59H191.556V54.4798C191.556 52.2404 190.547 51.0655 188.584 51.0655C187.367 51.0655 186.261 51.5216 185.349 52.0884L186.082 53.4292C186.801 53.0145 187.492 52.6966 188.211 52.6966C189.164 52.6966 189.496 53.2772 189.538 54.0375C186.414 54.3692 185.073 55.2401 185.073 56.8989C185.073 58.2121 185.985 59.1935 187.367 59.1935ZM188.031 57.6039C187.436 57.6039 187.008 57.3412 187.008 56.733C187.008 56.0418 187.644 55.5165 189.538 55.2816V56.8436C189.04 57.3274 188.611 57.6039 188.031 57.6039ZM193.627 59H195.659V53.6781C196.226 53.1113 196.626 52.8072 197.262 52.8072C198.023 52.8072 198.354 53.2219 198.354 54.4245V59H200.386V54.1757C200.386 52.2266 199.668 51.0655 197.995 51.0655C196.944 51.0655 196.156 51.6184 195.479 52.2819H195.438L195.286 51.259H193.627V59ZM205.855 59.1935C206.809 59.1935 207.79 58.8618 208.551 58.3365L207.859 57.0924C207.307 57.438 206.754 57.6315 206.118 57.6315C204.97 57.6315 204.141 56.968 203.975 55.6962H208.744C208.799 55.5165 208.841 55.1433 208.841 54.7563C208.841 52.6275 207.735 51.0655 205.606 51.0655C203.768 51.0655 201.998 52.6275 201.998 55.1295C201.998 57.6868 203.685 59.1935 205.855 59.1935ZM203.948 54.3416C204.1 53.2219 204.818 52.6413 205.634 52.6413C206.629 52.6413 207.099 53.3048 207.099 54.3416H203.948ZM212.726 59.1935C214.744 59.1935 215.809 58.1015 215.809 56.7468C215.809 55.3092 214.675 54.7977 213.652 54.4107C212.837 54.1066 212.118 53.8992 212.118 53.3325C212.118 52.8901 212.45 52.586 213.155 52.586C213.721 52.586 214.26 52.8487 214.813 53.2495L215.726 52.0193C215.09 51.5355 214.219 51.0655 213.099 51.0655C211.33 51.0655 210.21 52.0469 210.21 53.4292C210.21 54.7286 211.302 55.323 212.284 55.6962C213.099 56.0142 213.901 56.2768 213.901 56.8574C213.901 57.3412 213.555 57.673 212.781 57.673C212.063 57.673 211.399 57.3689 210.708 56.8298L209.782 58.1015C210.556 58.7374 211.689 59.1935 212.726 59.1935ZM220.731 59.1935C221.685 59.1935 222.667 58.8618 223.427 58.3365L222.736 57.0924C222.183 57.438 221.63 57.6315 220.994 57.6315C219.847 57.6315 219.017 56.968 218.851 55.6962H223.62C223.676 55.5165 223.717 55.1433 223.717 54.7563C223.717 52.6275 222.611 51.0655 220.482 51.0655C218.644 51.0655 216.875 52.6275 216.875 55.1295C216.875 57.6868 218.561 59.1935 220.731 59.1935ZM218.824 54.3416C218.976 53.2219 219.695 52.6413 220.51 52.6413C221.505 52.6413 221.975 53.3048 221.975 54.3416H218.824ZM233.084 59.1935C234.508 59.1935 235.71 58.6406 236.402 57.9633V53.3463H232.766V55.0189H234.577V57.0371C234.287 57.2859 233.789 57.4242 233.305 57.4242C231.287 57.4242 230.264 56.0833 230.264 53.8578C230.264 51.6599 231.453 50.3328 233.153 50.3328C234.079 50.3328 234.66 50.7061 235.171 51.1899L236.249 49.8905C235.586 49.2132 234.563 48.5773 233.084 48.5773C230.361 48.5773 228.177 50.554 228.177 53.9269C228.177 57.3412 230.305 59.1935 233.084 59.1935ZM238.431 59H240.463V54.383C240.891 53.2634 241.624 52.8625 242.232 52.8625C242.55 52.8625 242.771 52.904 243.048 52.9869L243.393 51.2313C243.158 51.1346 242.909 51.0655 242.481 51.0655C241.679 51.0655 240.85 51.6184 240.283 52.6275H240.242L240.09 51.259H238.431V59ZM245.927 59.1935C246.812 59.1935 247.586 58.7512 248.263 58.1706H248.318L248.457 59H250.115V54.4798C250.115 52.2404 249.106 51.0655 247.143 51.0655C245.927 51.0655 244.821 51.5216 243.909 52.0884L244.641 53.4292C245.36 53.0145 246.051 52.6966 246.77 52.6966C247.724 52.6966 248.056 53.2772 248.097 54.0375C244.973 54.3692 243.632 55.2401 243.632 56.8989C243.632 58.2121 244.545 59.1935 245.927 59.1935ZM246.591 57.6039C245.996 57.6039 245.568 57.3412 245.568 56.733C245.568 56.0418 246.204 55.5165 248.097 55.2816V56.8436C247.6 57.3274 247.171 57.6039 246.591 57.6039ZM252.186 59H254.218V53.6781C254.758 53.0975 255.255 52.8072 255.698 52.8072C256.43 52.8072 256.79 53.2219 256.79 54.4245V59H258.808V53.6781C259.361 53.0975 259.858 52.8072 260.301 52.8072C261.033 52.8072 261.379 53.2219 261.379 54.4245V59H263.411V54.1757C263.411 52.2266 262.651 51.0655 261.006 51.0655C259.997 51.0655 259.25 51.6737 258.545 52.4201C258.172 51.5631 257.522 51.0655 256.416 51.0655C255.407 51.0655 254.688 51.6184 254.039 52.2957H253.997L253.845 51.259H252.186V59ZM265.51 59H267.542V53.6781C268.081 53.0975 268.579 52.8072 269.021 52.8072C269.754 52.8072 270.113 53.2219 270.113 54.4245V59H272.132V53.6781C272.684 53.0975 273.182 52.8072 273.624 52.8072C274.357 52.8072 274.703 53.2219 274.703 54.4245V59H276.735V54.1757C276.735 52.2266 275.974 51.0655 274.329 51.0655C273.32 51.0655 272.574 51.6737 271.869 52.4201C271.496 51.5631 270.846 51.0655 269.74 51.0655C268.731 51.0655 268.012 51.6184 267.363 52.2957H267.321L267.169 51.259H265.51V59ZM280.742 59.1935C281.626 59.1935 282.4 58.7512 283.078 58.1706H283.133L283.271 59H284.93V54.4798C284.93 52.2404 283.921 51.0655 281.958 51.0655C280.742 51.0655 279.636 51.5216 278.723 52.0884L279.456 53.4292C280.175 53.0145 280.866 52.6966 281.585 52.6966C282.539 52.6966 282.87 53.2772 282.912 54.0375C279.788 54.3692 278.447 55.2401 278.447 56.8989C278.447 58.2121 279.359 59.1935 280.742 59.1935ZM281.405 57.6039C280.811 57.6039 280.382 57.3412 280.382 56.733C280.382 56.0418 281.018 55.5165 282.912 55.2816V56.8436C282.414 57.3274 281.986 57.6039 281.405 57.6039ZM287.001 59H289.033V54.383C289.462 53.2634 290.194 52.8625 290.802 52.8625C291.12 52.8625 291.341 52.904 291.618 52.9869L291.964 51.2313C291.729 51.1346 291.48 51.0655 291.051 51.0655C290.249 51.0655 289.42 51.6184 288.853 52.6275H288.812L288.66 51.259H287.001V59Z" fill="#9D4745"/>
</svg>
